<?xml version="1.0" standalone="no"?>
<!DOCTYPE svg PUBLIC "-//W3C//DTD SVG 20010904//EN"
 "http://www.w3.org/TR/2001/REC-SVG-20010904/DTD/svg10.dtd">
<svg version="1.0" xmlns="http://www.w3.org/2000/svg"
 width="247.000000pt" height="166.000000pt" viewBox="0 0 247.000000 166.000000"
 preserveAspectRatio="xMidYMid meet">

<g transform="translate(0.000000,166.000000) scale(0.100000,-0.100000)"
fill="#000000" stroke="none">
<path d="M0 920 l0 -600 1235 0 1235 0 -2 598 -3 597 -1232 3 -1233 2 0 -600z
m1558 -2 l2 -588 -345 0 -345 0 0 583 c0 321 3 587 7 590 4 4 158 6 342 5
l336 -3 3 -587z m-698 -3 l0 -585 -425 0 -425 0 0 585 0 585 425 0 425 0 0
-585z m972 405 l29 0 -3 -171 -3 -171 135 -4 c74 -3 146 -6 160 -7 l25 -2 -2
176 -2 176 52 7 c71 8 127 8 127 -1 0 -5 1 -191 3 -416 l2 -407 -30 -6 c-16
-3 -57 -4 -90 -2 l-60 3 0 190 0 190 -159 8 c-88 4 -161 6 -163 4 -2 -2 1 -89
7 -192 5 -104 7 -191 4 -194 -3 -3 -45 -6 -92 -6 l-87 0 4 345 c3 360 -1 397
-39 407 -15 4 -20 14 -20 39 0 28 4 33 28 37 15 3 54 3 86 1 32 -2 72 -4 88
-4z"/>
<path d="M1125 1347 c-64 -17 -103 -38 -137 -74 -84 -88 -75 -244 18 -321 18
-15 81 -54 139 -87 150 -84 196 -139 181 -219 -10 -52 -37 -70 -114 -74 -82
-5 -118 17 -128 76 -10 63 -14 70 -46 81 -77 27 -138 -3 -138 -67 0 -115 149
-200 334 -190 73 4 96 10 153 39 94 48 126 95 131 193 7 126 -42 186 -236 290
-144 76 -172 103 -172 165 0 57 19 86 65 101 73 24 134 -16 142 -94 5 -39 9
-46 36 -55 83 -30 157 3 157 69 0 62 -44 115 -123 150 -60 27 -192 35 -262 17z"/>
<path d="M440 1349 c-124 -24 -244 -122 -303 -246 -27 -59 -32 -81 -35 -169
-9 -217 60 -355 214 -430 55 -27 67 -29 179 -29 111 0 125 2 181 28 34 16 77
44 95 63 32 33 33 36 19 61 -26 45 -43 49 -81 21 -53 -39 -93 -51 -158 -46
-91 6 -147 45 -191 132 -35 68 -35 70 -35 200 0 154 15 205 75 260 43 38 79
49 155 44 l50 -3 7 -48 c12 -86 48 -117 122 -103 19 4 39 12 44 19 6 7 12 52
14 101 3 81 1 89 -20 106 -49 40 -222 61 -332 39z m262 -26 c32 -9 63 -22 69
-29 17 -20 7 -173 -12 -185 -8 -5 -33 -9 -56 -9 -53 0 -73 25 -73 91 0 44 -2
48 -31 58 -108 38 -225 -22 -270 -137 -30 -76 -32 -260 -4 -337 44 -124 129
-190 245 -189 63 0 98 12 163 57 15 10 21 8 38 -12 10 -13 19 -26 19 -30 0 -3
-20 -21 -45 -39 -171 -129 -445 -97 -556 65 -54 78 -72 145 -73 273 0 102 2
122 26 178 91 218 307 313 560 245z"/>
<path d="M1774 254 c3 -9 6 -51 6 -95 0 -64 3 -79 15 -79 11 0 15 12 15 49 0
35 4 51 16 55 38 14 44 7 44 -49 0 -46 3 -55 18 -55 15 0 16 8 12 62 -5 57 -7
63 -29 66 -13 2 -28 -1 -34 -7 -20 -20 -27 -12 -27 29 0 34 -3 40 -21 40 -15
0 -19 -4 -15 -16z"/>
<path d="M2118 263 c8 -3 12 -32 12 -94 l0 -89 40 0 c30 0 47 7 65 25 48 47
21 112 -42 102 -32 -6 -33 -5 -33 29 0 31 -3 34 -27 33 -16 0 -22 -3 -15 -6z
m102 -84 c13 -23 5 -70 -13 -81 -7 -4 -20 -8 -29 -8 -15 0 -18 9 -18 49 0 47
7 58 37 60 7 1 17 -8 23 -20z"/>
<path d="M1960 148 c4 -54 8 -63 26 -66 11 -2 26 3 32 11 9 11 7 13 -11 13
-20 -1 -22 3 -19 52 3 45 1 52 -15 52 -16 0 -17 -7 -13 -62z"/>
<path d="M2040 150 c0 -45 4 -62 15 -67 21 -8 21 -7 17 65 -3 45 -8 62 -18 62
-10 0 -14 -15 -14 -60z"/>
</g>
</svg>
